<?xml version="1.0" encoding="utf-8"?>
<!-- Generator: Adobe Illustrator 26.0.1, SVG Export Plug-In . SVG Version: 6.00 Build 0)  -->
<svg version="1.1" id="Calque_1" xmlns="http://www.w3.org/2000/svg" xmlns:xlink="http://www.w3.org/1999/xlink" x="0px" y="0px"
	 viewBox="0 0 240 147" style="enable-background:new 0 0 240 147;" xml:space="preserve">
<g>
	<g>
		<path d="M74.8,124.4c-12.1,0-22.3-2.8-30.6-8.4c-8.3-5.6-13.3-14.4-15-26.5l14.9-3.4c1.1,6.4,3.1,11.4,6,15
			c2.9,3.7,6.5,6.2,10.9,7.8c4.3,1.5,8.9,2.3,13.8,2.3c7.3,0,13.1-1.5,17.3-4.4c4.2-2.9,6.4-6.8,6.4-11.7c0-5-2-8.6-6.1-10.7
			c-4.1-2.1-9.6-3.7-16.6-5.1L67.6,78c-6.2-1.1-11.9-2.7-17.1-5c-5.2-2.3-9.3-5.3-12.3-9.2c-3.1-3.8-4.6-8.7-4.6-14.5
			c0-8.8,3.4-15.6,10.2-20.5c6.8-4.9,15.7-7.4,26.9-7.4c11,0,19.9,2.5,26.8,7.5c6.8,5,11.3,12,13.2,21l-14.7,3.8
			c-1.2-7-4.1-12-8.6-14.8c-4.5-2.9-10.1-4.3-16.7-4.3c-6.6,0-11.9,1.2-15.7,3.7c-3.9,2.5-5.8,6.1-5.8,10.9c0,4.6,1.8,8.1,5.5,10.3
			c3.6,2.2,8.5,3.8,14.6,4.9l8.2,1.4c6.9,1.2,13.1,2.8,18.6,4.9c5.5,2.1,9.9,5,13.1,8.9c3.3,3.9,4.9,8.9,4.9,15.1
			c0,9.6-3.6,16.9-10.7,22.1C96.2,121.8,86.7,124.4,74.8,124.4z"/>
	</g>
</g>
<g>
	<g>
	</g>
</g>
<g>
	<g>
		<path d="M167.1,124.4c-9.4,0-17.9-2-25.4-6.1c-7.5-4-13.4-9.9-17.7-17.4c-4.3-7.6-6.5-16.5-6.5-26.9v-2.2c0-10.5,2.2-19.5,6.5-27
			c4.3-7.5,10.2-13.3,17.7-17.3c7.5-4,16-6.1,25.4-6.1c9.3,0,17.2,1.7,23.8,5.2c6.6,3.5,11.7,8,15.5,13.7c3.8,5.7,6.2,11.8,7.3,18.3
			l-15.3,3.2c-0.7-4.8-2.2-9.2-4.7-13.1c-2.5-4-5.9-7.2-10.3-9.6c-4.4-2.4-9.8-3.6-16.1-3.6c-6.5,0-12.3,1.5-17.4,4.4
			c-5.1,2.9-9.2,7.1-12.1,12.5c-3,5.4-4.5,11.9-4.5,19.5v1.8c0,7.6,1.5,14.1,4.5,19.5c3,5.4,7,9.6,12.1,12.5
			c5.1,2.9,10.9,4.4,17.4,4.4c9.7,0,17.1-2.5,22.2-7.6c5.1-5,8.3-11.3,9.5-18.7l15.5,3.4c-1.5,6.4-4.1,12.4-8,18.1
			c-3.9,5.7-9.1,10.3-15.6,13.7C184.4,122.7,176.4,124.4,167.1,124.4z"/>
	</g>
</g>
</svg>
